<svg 
  width="100%" 
  height="100%" 
  id="svg" 
  viewBox="0 0 1440 590" 
  xmlns="http://www.w3.org/2000/svg" 
  class="transition duration-300 ease-in-out delay-150"
>
  <defs>
    <linearGradient id="gradient" x1="0%" y1="50%" x2="100%" y2="50%">
      <stop offset="5%" stop-color="#2380c4"></stop>
      <stop offset="95%" stop-color="#23c4a7"></stop>
    </linearGradient>
  </defs>
  
  <path 
    d="M 0,600 L 0,0 C 102.77511961722487,64.24880382775119 205.55023923444975,128.49760765550238 289,166 C 372.44976076555025,203.50239234449762 436.57416267942585,214.25837320574163 540,192 C 643.4258373205741,169.74162679425837 786.153110047847,114.4688995215311 885,100 C 983.846889952153,85.5311004784689 1038.8133971291866,111.86602870813397 1124,102 C 1209.1866028708134,92.13397129186603 1324.5933014354068,46.066985645933016 1440,0 L 1440,600 L 0,600 Z" 
    stroke="none" 
    stroke-width="0" 
    fill="url(#gradient)" 
    fill-opacity="0.53" 
    class="transition-all duration-300 ease-in-out delay-150 path-0"
  ></path>
  
  <defs>
    <linearGradient id="gradient" x1="0%" y1="50%" x2="100%" y2="50%">
      <stop offset="5%" stop-color="#2380c4"></stop>
      <stop offset="95%" stop-color="#23c4a7"></stop>
    </linearGradient>
  </defs>
  
  <path 
    d="M 0,600 L 0,0 C 115.30143540669854,145.87559808612443 230.6028708133971,291.75119617224885 310,359 C 389.3971291866029,426.24880382775115 432.88995215311013,414.87081339712915 535,394 C 637.1100478468899,373.12918660287085 797.8373205741626,342.7655502392344 901,364 C 1004.1626794258374,385.2344497607656 1049.7607655502393,458.066985645933 1130,406 C 1210.2392344497607,353.933014354067 1325.1196172248804,176.9665071770335 1440,0 L 1440,600 L 0,600 Z" 
    stroke="none" 
    stroke-width="0" 
    fill="url(#gradient)" 
    fill-opacity="1" 
    class="transition-all duration-300 ease-in-out delay-150 path-1"
  ></path>
</svg>